<?xml version="1.0" encoding="UTF-8"?>
<svg id="_图层_1" data-name="图层 1" xmlns="http://www.w3.org/2000/svg" viewBox="0 0 226.27 216.39">
  <defs>
    <style>
      .cls-1 {
        # fill: #2563eb;
		fill: #ffffff;
        stroke-width: 0px;
      }
    </style>
  </defs>
  <path class="cls-1" d="M6.98.75c2.28,8.89,3.34,17.88,4.07,26.95.62,8.98,1.1,17.97.33,26.95-.77,8.98-2.72,17.97-3.07,26.95-.78,13.5,1.52,27.01,2.89,40.43,2.54,31.51,2.41,63.26-4.23,94.34,0,0-1.2,0-1.2,0C.18,189.74-.97,162.6.71,135.53c.38-18,4.73-35.89,3.74-53.91-.35-8.98-2.3-17.97-3.07-26.95-.77-8.99-.29-17.97.33-26.95C2.45,18.64,3.5,9.65,5.79.75h1.2Z"/>
  <path class="cls-1" d="M43.02,27.61c2.27,6.96,3.34,14.04,4.07,21.22.62,7.07,1.1,14.15.33,21.22-.77,7.07-2.72,14.15-3.07,21.22-.41,7.07.19,14.15,1.35,21.22,1.2,7.04,2.06,14.11,2.39,21.22,1.7,21.37.5,42.82-5.07,63.67,0,0-1.2,0-1.2,0-5.57-20.84-6.77-42.3-5.07-63.67.39-14.19,4.73-28.23,3.74-42.44-.35-7.07-2.3-14.15-3.07-21.22-.77-7.08-.29-14.15.33-21.22.74-7.18,1.8-14.26,4.07-21.22,0,0,1.2,0,1.2,0h0Z"/>
  <path class="cls-1" d="M78.87,54.39c2.24,4.76,3.33,9.68,4.07,14.75.62,4.91,1.12,9.83.33,14.75-.77,4.92-2.71,9.83-3.07,14.75-.4,4.92.2,9.83,1.35,14.75,1.19,4.87,2.05,9.77,2.39,14.75.46,4.92.94,9.83.74,14.75-.54,10.12-1.99,19.89-5.81,29.5,0,0-1.2,0-1.2,0-2.97-7.31-4.31-14.53-5.23-22.12-1.28-9.82-.27-19.71,1-29.5,1.36-7.28,3.67-14.71,2.9-22.13-.36-4.92-2.3-9.83-3.07-14.75-.79-4.92-.29-9.84.33-14.75.75-5.07,1.84-9.98,4.07-14.75,0,0,1.2,0,1.2,0h0Z"/>
  <path class="cls-1" d="M114.87,81.39c3.55,4.19,5.65,10.42,4.41,15.75-.78,2.63-2.72,5.25-3.08,7.88-.42,2.62.2,5.25,1.35,7.88,2.18,4.77,3.24,10.56,3.13,15.75-.58,5.77-2.16,10.84-5.81,15.75,0,0-1.2,0-1.2,0-3.65-4.91-5.23-9.98-5.81-15.75-.17-3.95.64-7.95,1.58-11.81,1.29-3.77,3.69-7.8,2.9-11.81-.36-2.62-2.29-5.25-3.08-7.87-.78-2.63-.28-5.26.33-7.88.81-2.88,1.96-5.46,4.08-7.87,0,0,1.2,0,1.2,0h0Z"/>
  <g>
    <line class="cls-1" x1="219.89" y1="215.64" x2="219.89" y2="0"/>
    <path class="cls-1" d="M219.29,215.64c-2.28-8.89-3.34-17.88-4.07-26.95-.62-8.98-1.1-17.97-.33-26.95.77-8.98,2.72-17.97,3.07-26.95.78-13.5-1.52-27.01-2.89-40.43-2.54-31.51-2.41-63.26,4.23-94.34,0,0,1.2,0,1.2,0,5.6,26.65,6.76,53.79,5.07,80.86-.38,18-4.73,35.89-3.74,53.91.35,8.98,2.3,17.97,3.07,26.95.77,8.99.29,17.97-.33,26.95-.73,9.07-1.79,18.06-4.07,26.95,0,0-1.2,0-1.2,0h0Z"/>
  </g>
  <g>
    <line class="cls-1" x1="185.92" y1="197.64" x2="185.92" y2="27.86"/>
    <path class="cls-1" d="M185.32,197.64c-2.27-6.96-3.34-14.04-4.07-21.22-.62-7.07-1.1-14.15-.33-21.22.77-7.07,2.72-14.15,3.07-21.22.41-7.07-.19-14.15-1.35-21.22-1.2-7.04-2.05-14.11-2.39-21.22-1.7-21.37-.5-42.82,5.07-63.67,0,0,1.2,0,1.2,0,5.57,20.84,6.77,42.3,5.07,63.67-.39,14.19-4.73,28.23-3.74,42.44.35,7.07,2.3,14.15,3.07,21.22.77,7.08.29,14.15-.33,21.22-.74,7.18-1.8,14.26-4.07,21.22,0,0-1.2,0-1.2,0h0Z"/>
  </g>
  <g>
    <line class="cls-1" x1="149.27" y1="172.39" x2="149.27" y2="54.39"/>
    <path class="cls-1" d="M148.67,172.39c-2.24-4.76-3.33-9.68-4.07-14.75-.62-4.91-1.12-9.83-.33-14.75.77-4.92,2.71-9.83,3.07-14.75.4-4.92-.2-9.83-1.35-14.75-1.19-4.87-2.05-9.77-2.39-14.75-.46-4.92-.94-9.83-.74-14.75.54-10.12,1.99-19.89,5.81-29.5,0,0,1.2,0,1.2,0,2.97,7.31,4.31,14.53,5.23,22.12,1.28,9.82.27,19.71-1,29.5-1.36,7.28-3.67,14.71-2.9,22.13.36,4.92,2.3,9.83,3.07,14.75.79,4.92.29,9.84-.33,14.75-.75,5.07-1.84,9.98-4.07,14.75,0,0-1.2,0-1.2,0h0Z"/>
  </g>
</svg>